<svg xmlns="http://www.w3.org/2000/svg" xmlns:xlink="http://www.w3.org/1999/xlink" width="500" zoomAndPan="magnify" viewBox="0 0 375 225" height="300" preserveAspectRatio="xMidYMid meet" version="1.0"><defs><clipPath id="165ac06828"><path d="M 121.945312 46.945312 L 253.195312 46.945312 L 253.195312 178.195312 L 121.945312 178.195312 Z M 121.945312 46.945312 " clip-rule="nonzero"/></clipPath></defs><rect x="-37.5" width="450" fill="#ffffff" y="-22.5" height="270" fill-opacity="1"/><rect x="-37.5" width="450" fill="#000000" y="-22.5" height="270" fill-opacity="1"/><g clip-path="url(#165ac06828)"><path fill="#5271ff" d="M 194.710938 65.289062 L 187.496094 58.074219 L 180.28125 65.289062 C 178.300781 67.273438 177.308594 69.886719 177.308594 72.503906 C 177.308594 75.125 178.300781 77.738281 180.28125 79.722656 L 187.496094 86.9375 L 194.710938 79.722656 C 196.691406 77.742188 197.683594 75.125 197.683594 72.503906 C 197.683594 69.886719 196.695312 67.269531 194.710938 65.289062 M 234.703125 119.710938 L 241.917969 112.496094 L 234.703125 105.28125 C 232.71875 103.296875 230.105469 102.308594 227.484375 102.308594 C 224.867188 102.308594 222.253906 103.300781 220.269531 105.28125 L 213.054688 112.496094 L 220.269531 119.710938 C 222.25 121.691406 224.867188 122.683594 227.484375 122.683594 C 230.105469 122.683594 232.722656 121.695312 234.703125 119.710938 Z M 180.28125 159.703125 L 187.496094 166.917969 L 194.710938 159.703125 C 196.695312 157.71875 197.683594 155.105469 197.683594 152.484375 C 197.683594 149.867188 196.691406 147.253906 194.710938 145.269531 L 187.496094 138.054688 L 180.28125 145.269531 C 178.300781 147.25 177.308594 149.867188 177.308594 152.484375 C 177.308594 155.105469 178.296875 157.722656 180.28125 159.703125 Z M 140.289062 105.28125 L 133.074219 112.496094 L 140.289062 119.710938 C 142.273438 121.691406 144.886719 122.683594 147.503906 122.683594 C 150.125 122.683594 152.738281 121.691406 154.722656 119.710938 L 161.9375 112.496094 L 154.722656 105.28125 C 152.742188 103.300781 150.125 102.308594 147.503906 102.308594 C 144.886719 102.308594 142.269531 103.296875 140.289062 105.28125 Z M 184.714844 175.261719 L 174.714844 165.265625 C 171.199219 161.75 169.441406 157.117188 169.441406 152.484375 C 169.441406 147.859375 171.199219 143.226562 174.714844 139.707031 L 181.933594 132.492188 L 185.28125 129.140625 L 196.363281 118.058594 L 198.578125 120.273438 L 201.925781 123.625 L 193.058594 132.492188 L 200.273438 139.707031 C 202.242188 141.675781 203.664062 143.996094 204.53125 146.46875 C 208.183594 144.632812 211.503906 142.226562 214.367188 139.363281 C 215.453125 138.273438 216.472656 137.121094 217.425781 135.910156 C 219.875 136.957031 222.484375 137.621094 225.171875 137.867188 C 223.535156 140.289062 221.671875 142.546875 219.609375 144.609375 C 215.574219 148.644531 210.785156 151.921875 205.46875 154.214844 C 205.085938 158.25 203.351562 162.183594 200.273438 165.265625 L 187.496094 178.042969 Z M 250.261719 115.277344 L 240.265625 125.273438 C 236.746094 128.792969 232.117188 130.550781 227.484375 130.550781 C 222.859375 130.550781 218.226562 128.792969 214.707031 125.273438 L 207.492188 118.058594 L 204.140625 114.710938 L 193.058594 103.628906 L 198.625 98.0625 L 207.492188 106.933594 L 214.707031 99.714844 C 216.675781 97.746094 218.996094 96.328125 221.46875 95.460938 C 219.632812 91.804688 217.226562 88.488281 214.363281 85.625 C 213.273438 84.539062 212.125 83.519531 210.910156 82.570312 C 211.957031 80.121094 212.621094 77.507812 212.867188 74.820312 C 215.289062 76.457031 217.546875 78.320312 219.609375 80.382812 C 223.644531 84.417969 226.921875 89.203125 229.214844 94.523438 C 233.25 94.90625 237.183594 96.636719 240.265625 99.714844 L 253.042969 112.496094 Z M 190.277344 49.730469 L 200.273438 59.726562 C 203.792969 63.246094 205.550781 67.875 205.550781 72.503906 C 205.550781 77.132812 203.792969 81.765625 200.273438 85.285156 L 187.496094 98.0625 L 184.148438 101.414062 L 178.625 106.933594 L 173.0625 101.371094 L 167.496094 106.933594 L 170.847656 110.28125 L 173.0625 112.5 L 181.929688 121.367188 L 179.714844 123.582031 L 176.367188 126.933594 L 167.496094 118.0625 L 160.28125 125.277344 C 158.3125 127.246094 155.988281 128.664062 153.519531 129.53125 C 155.351562 133.1875 157.761719 136.503906 160.625 139.367188 C 161.710938 140.457031 162.863281 141.476562 164.078125 142.425781 C 163.027344 144.875 162.363281 147.484375 162.121094 150.171875 C 159.699219 148.535156 157.441406 146.671875 155.378906 144.613281 C 151.34375 140.578125 148.066406 135.785156 145.773438 130.472656 C 141.738281 130.089844 137.804688 128.355469 134.722656 125.277344 L 121.945312 112.496094 L 124.730469 109.714844 L 134.726562 99.714844 C 138.246094 96.199219 142.875 94.441406 147.503906 94.441406 C 152.136719 94.441406 156.765625 96.199219 160.285156 99.714844 L 167.5 106.933594 L 181.933594 92.5 L 174.714844 85.285156 C 172.746094 83.316406 171.328125 80.996094 170.460938 78.523438 C 166.804688 80.359375 163.488281 82.765625 160.625 85.628906 C 159.539062 86.714844 158.519531 87.867188 157.570312 89.082031 C 155.121094 88.03125 152.507812 87.371094 149.820312 87.128906 C 151.457031 84.703125 153.320312 82.445312 155.378906 80.382812 C 159.414062 76.347656 164.203125 73.070312 169.519531 70.78125 C 169.902344 66.742188 171.636719 62.808594 174.714844 59.730469 L 187.496094 46.945312 Z M 190.277344 49.730469 " fill-opacity="1" fill-rule="evenodd"/></g></svg>